<?xml version="1.0" encoding="UTF-8"?> <svg xmlns="http://www.w3.org/2000/svg" width="32" height="32" viewBox="0 0 32 32" fill="none"><path d="M31.679 14.759L24.912 3.00498C24.461 2.24698 23.649 1.77698 22.767 1.76398H9.233C8.351 1.77698 7.539 2.24698 7.088 3.00498L0.321 14.759C-0.107 15.531 -0.107 16.469 0.321 17.241L7.088 28.996C7.539 29.754 8.351 30.224 9.233 30.237H22.767C23.649 30.224 24.461 29.754 24.912 28.996L31.679 17.241C32.107 16.469 32.107 15.531 31.679 14.759ZM22.587 23.36H20.253C20.142 23.358 20.041 23.296 19.988 23.199L16.038 16.142C16.018 16.107 16.005 16.068 16 16.028C15.995 16.068 15.982 16.107 15.962 16.142L12.002 23.199C11.951 23.293 11.854 23.354 11.747 23.36H9.413C9.201 23.362 9.042 23.089 9.148 22.905L13.014 16L9.148 9.08598C9.055 8.91898 9.168 8.67598 9.356 8.64098C9.375 8.63898 9.394 8.63898 9.413 8.64098H11.747C11.852 8.64498 11.948 8.70198 12.002 8.79198L15.962 15.849C15.982 15.884 15.995 15.923 16 15.963C16.005 15.923 16.018 15.884 16.038 15.849L19.988 8.79198C20.044 8.69898 20.144 8.64098 20.253 8.64098H22.587C22.794 8.64298 22.949 8.90298 22.852 9.08598L18.986 16L22.851 22.905C22.957 23.089 22.799 23.361 22.587 23.36Z" fill="#3498DB"></path></svg> 