<?xml version="1.0" encoding="UTF-8"?> <svg xmlns="http://www.w3.org/2000/svg" width="32" height="32" viewBox="0 0 32 32" fill="none"><rect width="32" height="32" fill="white"></rect><path d="M17.79 2C13.44 2 9.54995 3.96 6.94995 7.04C8.60995 7.27 10.18 7.94 11.49 8.99C13.21 7.49 15.4199 6.66 17.7099 6.66C22.9799 6.66 27.26 10.94 27.26 16.23C27.26 21.52 22.9799 25.8 17.7099 25.8C15.4299 25.8 13.22 24.97 11.49 23.47C10.18 24.52 8.60995 25.19 6.94995 25.42C9.55995 28.5 13.44 30.46 17.79 30.46C25.64 30.46 31.9999 24.09 31.9999 16.22C31.9999 8.35 25.64 2 17.79 2Z" fill="#424242"></path><path d="M5.32 21.57C8.25815 21.57 10.64 19.1837 10.64 16.24C10.64 13.2964 8.25815 10.91 5.32 10.91C2.38185 10.91 0 13.2964 0 16.24C0 19.1837 2.38185 21.57 5.32 21.57Z" fill="#0095D7"></path></svg> 