<?xml version="1.0" encoding="UTF-8"?> <svg xmlns="http://www.w3.org/2000/svg" width="32" height="32" viewBox="0 0 32 32" fill="none"><g clip-path="url(#clip0)"><path d="M27.5 62.8615C26.646 62.8615 25.8489 62.6336 25.1088 62.2349L17.5364 57.7351C16.3977 57.1086 16.9671 56.8808 17.3087 56.7669C18.8459 56.2543 19.1305 56.1403 20.7249 55.229C20.8957 55.1151 21.1234 55.1721 21.2942 55.286L27.1017 58.7606C27.3294 58.8745 27.6141 58.8745 27.7849 58.7606L50.5022 45.6031C50.73 45.4892 50.8438 45.2614 50.8438 44.9766V18.7182C50.8438 18.4334 50.73 18.2056 50.5022 18.0917L27.7847 4.99094C27.5569 4.87703 27.2723 4.87703 27.1015 4.99094L4.3841 18.0917C4.15637 18.2056 4.0425 18.4904 4.0425 18.7182V44.9764C4.0425 45.2042 4.15637 45.489 4.3841 45.6029L10.5901 49.1914C13.9494 50.9001 16.0559 48.9066 16.0559 46.9131V20.9965C16.0559 20.6547 16.3406 20.313 16.7391 20.313H19.6429C19.9846 20.313 20.3262 20.5978 20.3262 20.9965V46.9129C20.3262 51.4127 17.878 54.0327 13.6078 54.0327C12.2983 54.0327 11.2735 54.0327 8.36967 52.6088L2.39121 49.1912C0.910938 48.3368 0 46.742 0 45.0333V18.7751C0 17.0662 0.910938 15.4714 2.39121 14.6171L25.1088 1.45962C26.5321 0.662223 28.4681 0.662223 29.8914 1.45962L52.6088 14.6171C54.0891 15.4714 55 17.0662 55 18.7751V45.0333C55 46.742 54.0891 48.337 52.6088 49.1914L29.8912 62.3489C29.1511 62.6906 28.2971 62.8615 27.5 62.8615ZM34.503 44.8053C24.5392 44.8053 22.4896 40.2485 22.4896 36.3752C22.4896 36.0335 22.7743 35.6918 23.1728 35.6918H26.1336C26.4752 35.6918 26.7599 35.9196 26.7599 36.2613C27.2153 39.2803 28.5248 40.7611 34.56 40.7611C39.3426 40.7611 41.3922 39.679 41.3922 37.1157C41.3922 35.6348 40.8229 34.5526 33.3644 33.812C27.1584 33.1854 23.2867 31.8185 23.2867 26.863C23.2867 22.2493 27.1584 19.5154 33.649 19.5154C40.9368 19.5154 44.5238 22.0215 44.9793 27.4895C44.9793 27.6604 44.9223 27.8313 44.8085 28.0022C44.6946 28.1161 44.5238 28.23 44.353 28.23H41.3922C41.1076 28.23 40.8229 28.0022 40.766 27.7174C40.0828 24.5845 38.3178 23.5593 33.649 23.5593C28.4109 23.5593 27.7847 25.3819 27.7847 26.7491C27.7847 28.4009 28.5248 28.9135 35.5848 29.825C42.5878 30.7363 45.8902 32.0463 45.8902 36.9448C45.8333 41.9574 41.734 44.8053 34.503 44.8053Z" fill="#539E43"></path></g><defs><clipPath id="clip0"><rect width="32" height="32" fill="white" transform="translate(0 0.861084)"></rect></clipPath></defs></svg> 