<?xml version="1.0" encoding="UTF-8"?> <svg xmlns="http://www.w3.org/2000/svg" width="32" height="32" viewBox="0 0 32 32" fill="none"><path d="M30 16C30 23.73 23.73 30 16 30C8.27 30 2 23.73 2 16C2 8.27 8.27 2 16 2C23.73 2 30 8.27 30 16Z" fill="white"></path><path d="M16 0C7.18 0 0 7.18 0 16C0 24.82 7.18 32 16 32C24.82 32 32 24.82 32 16C32 7.18 24.82 0 16 0ZM28.63 10H23.43C22.85 7.04 21.84 4.54 20.55 2.78C24.1 4.01 27.01 6.61 28.63 10ZM30 16C30 17.39 29.79 18.73 29.41 20H23.75C23.91 18.72 24 17.39 24 16C24 14.61 23.91 13.28 23.75 12H29.41C29.79 13.27 30 14.61 30 16ZM16 30C13.92 30 11.67 26.9 10.61 22H21.38C20.33 26.9 18.08 30 16 30ZM10.27 20C9.91 17.35 9.91 14.65 10.27 12H21.74C22.1 14.65 22.1 17.35 21.74 20H10.27ZM2 16C2 14.61 2.21 13.27 2.59 12H8.25C8.09 13.28 8 14.61 8 16C8 17.39 8.09 18.72 8.25 20H2.59C2.21 18.73 2 17.39 2 16ZM16 2C18.08 2 20.33 5.1 21.39 10H10.61C11.67 5.1 13.92 2 16 2ZM11.44 2.78C10.15 4.54 9.15 7.04 8.57 10H3.37C4.99 6.61 7.9 4.01 11.44 2.78ZM3.37 22H8.57C9.15 24.96 10.16 27.46 11.45 29.22C7.9 27.99 4.99 25.39 3.37 22ZM20.56 29.22C21.85 27.46 22.85 24.96 23.44 22H28.64C27.01 25.39 24.1 27.99 20.56 29.22Z" fill="#1BA1E2"></path></svg> 