<?xml version="1.0" encoding="UTF-8"?> <svg xmlns="http://www.w3.org/2000/svg" width="32" height="32" viewBox="0 0 32 32" fill="none"><path d="M16 29.9999C9.99 29.9999 6 28.1899 6 26.9999V21.8799C8.27 23.2799 12.14 23.9999 16 23.9999C19.86 23.9999 23.74 23.2799 26 21.8799V26.9999C26 28.1899 22.01 29.9999 16 29.9999ZM26 11.9999V7.87994C23.74 9.27994 19.86 9.99994 16 9.99994C12.14 9.99994 8.27 9.27994 6 7.87994V11.9999C6 13.1899 9.99 14.9999 16 14.9999C22.01 14.9999 26 13.1899 26 11.9999Z" fill="#ABABAC"></path><path d="M16 21.9999C9.99 21.9999 6 20.1899 6 18.9999V14.8799C8.27 16.2799 12.14 16.9999 16 16.9999C19.86 16.9999 23.74 16.2799 26 14.8799V18.9999C26 20.1899 22.01 21.9999 16 21.9999Z" fill="#FFCC00"></path><path d="M16 2C22.01 2 26 3.81 26 5C26 6.19 22.01 8 16 8C9.99 8 6 6.19 6 5C6 3.81 9.99 2 16 2Z" fill="#DFDFDF"></path><path d="M16 0C10.04 0 4 1.72 4 5V27C4 30.28 10.04 32 16 32C21.96 32 28 30.28 28 27V5C28 1.72 21.96 0 16 0ZM16 2C22.01 2 26 3.81 26 5C26 6.19 22.01 8 16 8C9.99 8 6 6.19 6 5C6 3.81 9.99 2 16 2ZM16 30C9.99 30 6 28.19 6 27V21.88C8.27 23.28 12.14 24 16 24C19.86 24 23.74 23.28 26 21.88V27C26 28.19 22.01 30 16 30ZM16 22C9.99 22 6 20.19 6 19V14.88C8.27 16.28 12.14 17 16 17C19.86 17 23.74 16.28 26 14.88V19C26 20.19 22.01 22 16 22ZM16 15C9.99 15 6 13.19 6 12V7.88C8.27 9.28 12.14 10 16 10C19.86 10 23.74 9.28 26 7.88V12C26 13.19 22.01 15 16 15Z" fill="#424242"></path></svg> 