<?xml version="1.0" encoding="UTF-8"?> <svg xmlns="http://www.w3.org/2000/svg" width="32" height="32" viewBox="0 0 32 32" fill="none"><path d="M29.18 28.9499C28.83 29.5999 28.14 30.0099 27.4 29.9999H15.6C14.7 29.9999 14.09 29.4599 13.82 28.9499C13.65 28.6299 13.44 27.9799 13.92 27.2899L15.45 24.9999H27.55L29.09 27.2899C29.56 27.9799 29.35 28.6299 29.18 28.9499Z" fill="#9ECA00"></path><path d="M10 23.9999H8V9.99997H10V23.9999ZM18 9.99997V3.99999H16V9.99997H18ZM14 19.9799V0H12V22.9599L14 19.9799ZM10.09 25.9999H2V0H0V27.9999H9.63C9.65 27.3099 9.81 26.6299 10.09 25.9999ZM6 7.99998H4V23.9999H6V7.99998ZM30.95 29.8799C30.25 31.1899 28.89 32.0099 27.4 31.9999H15.6C14.12 32.0099 12.75 31.1899 12.05 29.8799C11.41 28.6999 11.49 27.2599 12.26 26.1599L18 17.6V14H17V12H26V14H25V17.6L30.74 26.1699C31.51 27.2799 31.59 28.6799 30.95 29.8799ZM16.79 22.9999H26.21L23 18.2099V14H20V18.2099L16.79 22.9999ZM29.09 27.2899L27.55 24.9999H15.45L13.92 27.2799C13.44 27.9799 13.65 28.6199 13.82 28.9499C14.17 29.5999 14.86 30.0099 15.6 29.9999H27.4C28.3 29.9999 28.91 29.4599 29.18 28.9499C29.35 28.6299 29.56 27.9799 29.09 27.2899Z" fill="#424242"></path><path d="M16.79 22.9999H26.21L23 18.2099V13.9999H20V18.2099L16.79 22.9999Z" fill="white"></path></svg> 