<?xml version="1.0" encoding="UTF-8"?> <svg xmlns="http://www.w3.org/2000/svg" width="32" height="32" viewBox="0 0 32 32" fill="none"><path d="M29.4201 25.01C29.0401 25.59 28.3901 25.91 28.0901 25.99C27.5001 25.64 26.0601 24.01 25.2601 23.11C24.1401 21.85 23.7401 21.42 23.3801 21.17L23.3201 21.13L23.2601 21.09C23.1701 21.03 23.0801 20.97 22.9901 20.91C22.1001 20.29 21.3101 20.01 18.9901 20.01H12.9901C10.6701 20.01 9.88008 20.29 8.99008 20.91C8.90008 20.97 8.81008 21.04 8.71008 21.1L8.65008 21.14L8.59008 21.18C8.25008 21.42 7.85008 21.85 6.73008 23.11C5.94008 24.01 4.50008 25.63 3.91008 25.99C3.59008 25.9 2.94008 25.59 2.58008 25.02C2.12008 24.31 1.72008 23.18 2.25008 20.22C2.81008 17.12 5.53008 11.2 5.89008 10.47C5.90008 10.44 5.95008 10.38 6.00008 10.32V12H8.00008V14H14.0001V12H16.0001V9H19.2901L19.7001 8.8C19.9501 8.68 20.2001 8.51 20.4501 8.35C20.5401 8.29 20.6201 8.24 20.6801 8.2L21.0001 8.01C21.1201 8.01 21.2501 8 21.3801 8C22.0201 8 22.8301 8.1 23.2801 8.2C23.8401 8.33 25.0001 8.53 25.0001 8.69V9.42L25.7301 10.02C25.9301 10.19 26.0801 10.39 26.1101 10.46C26.4801 11.19 29.2001 17.11 29.7501 20.21C30.2801 23.17 29.8801 24.3 29.4201 25.01Z" fill="white"></path><path d="M31.95 22.7C31.94 24.08 31.64 25.15 31.05 26.06C30.21 27.36 28.71 27.96 27.96 27.96C26.99 27.96 25.93 26.88 23.74 24.4C23.19 23.78 22.43 22.92 22.21 22.77C22.08 22.69 21.95 22.61 21.83 22.52C21.39 22.21 21.04 21.98 18.99 21.98H13.01C10.96 21.98 10.61 22.21 10.16 22.51C10.04 22.6 9.91 22.68 9.77 22.77C9.56 22.92 8.81 23.77 8.26 24.39C6.07 26.87 5.01 27.95 4.04 27.95C3.29 27.95 1.79 27.35 0.95 26.05C0.36 25.13 0.0600001 24.06 0.0500001 22.69V22.68C0.0400001 21.85 0.14 20.92 0.33 19.84C0.87 16.83 3.16 12 3.93 10.01H6.03V10.32C6.03 10.38 5.94 10.44 5.92 10.47C5.55 11.2 2.84 17.1 2.29 20.19C1.77 23.14 2.16 24.26 2.62 24.97C2.99 25.53 3.63 25.85 3.95 25.93C4.54 25.58 5.97 23.96 6.76 23.06C7.88 21.8 8.27 21.37 8.61 21.13L8.67 21.09L8.73 21.05C8.83 20.99 8.92 20.92 9.01 20.86C9.9 20.24 10.68 19.97 12.99 19.97H18.97C21.28 19.97 22.07 20.25 22.95 20.86C23.04 20.92 23.12 20.98 23.22 21.04L23.28 21.08L23.34 21.12C23.69 21.37 24.1 21.8 25.21 23.06C26 23.96 27.44 25.58 28.03 25.93C28.33 25.85 28.98 25.53 29.36 24.96C29.81 24.25 30.21 23.13 29.69 20.18C29.14 17.09 26.42 11.19 26.06 10.46C25.96 10.3 25.83 10.15 25.68 10.03L24.96 9.43005V8.72005C24.96 8.56005 23.8 8.36005 23.24 8.23005C22.62 8.11005 21.98 8.04005 21.35 8.03005C21.16 8.03005 21.03 8.04005 20.97 8.05005C20.89 8.09005 20.78 8.16005 20.65 8.24005C20.59 8.28005 20.51 8.33005 20.42 8.39005C20.17 8.55005 19.92 8.72005 19.68 8.84005L19.27 9.04005H16V7.04005H18.82C19.02 7.04005 19.43 6.65005 19.64 6.53005C19.83 6.41005 20.02 6.31005 20.22 6.20005C20.46 6.09005 20.88 6.05005 21.35 6.05005C22.15 6.05005 23.11 6.17005 23.66 6.29005C24.7 6.52005 26.15 6.99005 26.47 7.18005C26.77 7.36005 26.96 7.69005 26.96 8.04005V8.52005C26.96 8.86005 27.69 9.27005 27.85 9.60005C28.25 10.4 31.06 16.49 31.66 19.87C31.85 20.95 31.95 21.89 31.94 22.71L31.95 22.7ZM12.51 19C13.34 19 14.01 18.33 14.01 17.51C14.01 16.68 13.34 16.01 12.52 16.01C11.69 16.01 11.03 16.68 11.03 17.51C11.02 18.33 11.69 19 12.51 19ZM22.98 10.02C22.43 10.02 21.98 10.47 21.98 11.02C21.98 11.57 22.43 12.02 22.98 12.02C23.53 12.02 23.98 11.57 23.98 11.02C23.97 10.47 23.53 10.02 22.98 10.02ZM17.99 17.5C17.99 18.33 18.66 19 19.48 19C20.31 19 20.98 18.33 20.98 17.51C20.98 16.68 20.31 16.02 19.48 16.02C18.66 16.01 17.99 16.68 17.99 17.5ZM24.97 14.01C25.52 14.03 25.98 13.6 26 13.05C26.02 12.5 25.59 12.04 25.04 12.02C25.02 12.02 25 12.02 24.98 12.02C24.43 12.04 24 12.5 24.01 13.05C24.02 13.57 24.45 14 24.97 14.01ZM20.99 12.02C20.44 12.02 19.99 12.47 19.99 13.02C19.99 13.57 20.44 14.02 20.99 14.02C21.54 14.02 21.99 13.57 21.99 13.02C21.98 12.46 21.54 12.02 20.99 12.02ZM22.98 16.01C23.53 16.03 23.99 15.6 24.01 15.05C24.03 14.5 23.6 14.04 23.05 14.02C23.03 14.02 23.01 14.02 22.99 14.02C22.44 14.04 22.01 14.5 22.02 15.05C22.03 15.57 22.45 15.99 22.98 16.01Z" fill="#424242"></path><path d="M6 6V8H4V6H2V4H4V2H6V4H8V6H6ZM14 8H12V6H10V8H8V10H10V12H12V10H14V8Z" fill="#9B4F96"></path></svg> 