<?xml version="1.0" encoding="UTF-8"?> <svg xmlns="http://www.w3.org/2000/svg" width="32" height="32" viewBox="0 0 32 32" fill="none"><path d="M26.69 21.6179C26.607 22.0549 26.441 22.4729 26.202 22.8479C26.152 23.0499 26.053 23.2369 25.935 23.4079C25.558 23.9509 25.017 24.3579 24.391 24.5689C24.152 24.6409 23.901 24.6669 23.652 24.6449C23.244 25.3739 22.752 26.0579 22.196 26.6848C22.325 26.9038 22.452 27.1228 22.582 27.3418C22.91 27.8938 23.306 28.4178 23.491 29.0328C23.583 29.3398 23.62 29.6688 23.561 29.9838C23.506 30.3028 23.34 30.5928 23.092 30.8008C22.921 30.9318 22.722 31.0228 22.51 31.0668C22.3 31.1138 22.083 31.1228 21.868 31.1168C21.051 31.0938 20.259 30.8478 19.464 30.6548C18.379 30.3898 17.272 30.2278 16.157 30.1708C16.061 30.1648 15.964 30.1598 15.868 30.1478C15.835 30.1498 15.803 30.1568 15.77 30.1578C15.429 30.1698 15.087 30.1568 14.748 30.1178C14.631 30.1278 14.513 30.1308 14.396 30.1328C13.902 30.1438 13.414 30.2328 12.93 30.3328C12.468 30.4288 12.007 30.5348 11.551 30.6548C10.78 30.8568 10.009 31.0988 9.21203 31.1168C9.00203 31.1248 8.79203 31.1068 8.58703 31.0628C8.38103 31.0188 8.18803 30.9288 8.02103 30.8008C7.77103 30.6008 7.61103 30.2998 7.55203 29.9848C7.49903 29.6678 7.52303 29.3428 7.62003 29.0358C7.80303 28.4218 8.19503 27.8968 8.51603 27.3418C8.62103 27.1608 8.72503 26.9798 8.82603 26.7978C8.15203 25.9639 7.66503 24.9939 7.40003 23.9549C7.11003 23.5809 6.85303 23.1819 6.63203 22.7629C6.48403 22.4859 6.36703 22.1929 6.28303 21.8899C6.19903 21.5859 6.17903 21.268 6.22603 20.956C6.29103 20.564 6.48103 20.206 6.66803 19.855C6.92503 19.373 7.18203 18.891 7.41503 18.397C7.66803 17.862 7.89303 17.313 8.05803 16.745C8.20403 16.2451 8.30503 15.7291 8.51703 15.2531C8.76403 14.7001 9.15303 14.2241 9.53503 13.7521C9.84503 13.3671 10.152 12.9801 10.46 12.5941C10.747 12.2291 11.03 11.8611 11.311 11.4901L11.305 11.5301C11.441 11.2991 11.566 11.0622 11.667 10.8132C11.672 10.8012 11.674 10.7882 11.678 10.7762C11.68 10.6442 11.688 10.5112 11.688 10.3792C11.689 10.1092 11.658 9.84017 11.635 9.57118C11.566 8.7362 11.582 7.89721 11.551 7.06023C11.521 6.25524 11.447 5.45026 11.474 4.64528C11.502 3.82529 11.639 2.99631 12.003 2.26132C12.37 1.52034 12.956 0.910347 13.682 0.514355C14.362 0.148362 15.143 -0.00863472 15.915 0.000365105C16.962 0.0113649 18.012 0.328359 18.859 0.942347C19.39 1.32734 19.838 1.82333 20.19 2.37632C20.491 2.84831 20.725 3.3643 20.871 3.90529C21.172 5.01427 21.1 6.18325 21.159 7.33022C21.188 7.90421 21.249 8.4772 21.293 9.05019C21.349 9.13919 21.408 9.22819 21.46 9.31918C21.8 9.91617 22.06 10.5552 22.347 11.1801C22.453 11.4111 22.566 11.6391 22.678 11.8681C22.89 12.1531 23.083 12.4541 23.293 12.7421C23.727 13.3391 24.286 13.8361 24.73 14.4261C25.183 15.0291 25.508 15.7191 25.785 16.421C26.162 17.375 26.458 18.363 26.634 19.373C26.764 20.116 26.828 20.879 26.69 21.6179Z" fill="black"></path><path d="M12.889 9.25118C13.017 9.09118 13.191 8.97218 13.381 8.89518C13.571 8.81818 13.775 8.78219 13.979 8.76919C14.387 8.74519 14.795 8.81718 15.204 8.83318C15.717 8.85318 16.232 8.78619 16.745 8.81218C17.002 8.82518 17.258 8.86118 17.502 8.94218C17.746 9.02218 17.977 9.14918 18.163 9.32617C18.344 9.50017 18.478 9.71717 18.586 9.94416C18.694 10.1712 18.779 10.4072 18.876 10.6381C19.113 11.2011 19.425 11.7301 19.681 12.2851C20.035 13.0551 20.278 13.8751 20.402 14.7131C20.865 15.1911 21.252 15.744 21.542 16.344C22.384 18.086 22.377 20.115 22.148 22.0359C22.017 23.1349 21.806 24.2599 21.199 25.1849C20.884 25.6659 20.474 26.0748 20.061 26.4748C19.376 27.1388 18.665 27.7948 17.822 28.2438C16.211 29.1028 14.185 29.1008 12.547 28.2958C12.074 28.0628 11.633 27.7698 11.234 27.4238C10.454 26.7358 9.83896 25.8799 9.43696 24.9199C8.87396 23.6019 8.69096 22.1349 8.83096 20.709C8.94496 19.544 9.26896 18.404 9.74196 17.333C10.054 16.626 10.43 15.949 10.865 15.3101C10.823 14.9051 10.862 14.4971 10.978 14.1071C11.17 13.4661 11.562 12.9071 11.95 12.3621C12.174 12.0471 12.403 11.7251 12.506 11.3521C12.602 11.0041 12.579 10.6351 12.593 10.2742C12.6 10.0932 12.616 9.91216 12.661 9.73717C12.703 9.56217 12.776 9.39217 12.889 9.25118ZM13.054 4.78526C12.861 4.79926 12.678 4.88126 12.538 5.01526C12.4 5.15026 12.296 5.31625 12.238 5.50025C12.116 5.86524 12.144 6.26023 12.171 6.64323C12.196 6.99022 12.222 7.34421 12.352 7.66621C12.417 7.8272 12.508 7.9792 12.63 8.1042C12.752 8.2282 12.905 8.32419 13.074 8.36619C13.232 8.40619 13.401 8.39719 13.557 8.34919C13.713 8.29919 13.855 8.2122 13.971 8.0972C14.139 7.9262 14.259 7.71521 14.321 7.48421C14.382 7.25421 14.41 7.01522 14.402 6.77722C14.402 6.47923 14.356 6.18224 14.266 5.89824C14.176 5.61325 14.022 5.35225 13.816 5.13526C13.716 5.03026 13.6 4.94326 13.471 4.87726C13.342 4.81226 13.199 4.78026 13.054 4.78526ZM16.449 4.78526C16.149 4.99126 15.898 5.27825 15.776 5.62025C15.621 6.05124 15.681 6.53423 15.83 6.96722C15.983 7.41021 16.239 7.8332 16.625 8.0992C16.818 8.2322 17.042 8.32319 17.275 8.35119C17.508 8.37919 17.75 8.34119 17.958 8.2322C18.21 8.1002 18.404 7.8692 18.524 7.61021C18.644 7.35121 18.695 7.06422 18.711 6.77822C18.737 6.41423 18.691 6.04824 18.576 5.70125C18.446 5.32725 18.211 4.98226 17.879 4.76726C17.713 4.65827 17.525 4.58727 17.328 4.55927C17.131 4.53127 16.931 4.55327 16.745 4.62427C16.641 4.66727 16.541 4.72126 16.449 4.78526Z" fill="white"></path><path d="M17.1391 5.69026C17.2451 5.68326 17.3511 5.70026 17.4501 5.73826C17.6801 5.82726 17.8701 5.99826 17.9811 6.21825C18.0931 6.43525 18.1291 6.68824 18.0971 6.93024C18.0801 7.06823 18.0391 7.20123 17.9751 7.32423C17.9111 7.44723 17.8181 7.55323 17.7051 7.63322C17.4091 7.83722 17.0131 7.81922 16.7371 7.58923C16.6081 7.47823 16.5101 7.33423 16.4561 7.17323C16.4021 7.01224 16.3791 6.84224 16.3881 6.67224C16.3911 6.44525 16.4581 6.22325 16.5811 6.03225C16.6441 5.93826 16.7261 5.85826 16.8221 5.79726C16.9171 5.73626 17.0261 5.69926 17.1391 5.69026ZM12.5911 6.37425C12.5511 6.61624 12.5491 6.87024 12.6331 7.10023C12.6881 7.25223 12.7791 7.39123 12.8881 7.50923C12.9581 7.58922 13.0431 7.65522 13.1381 7.70322C13.2331 7.75222 13.3431 7.76522 13.4471 7.74222C13.5421 7.71622 13.6261 7.65922 13.6861 7.58122C13.7461 7.50323 13.7901 7.41423 13.8171 7.32023C13.8981 7.04024 13.8941 6.74324 13.8041 6.46625C13.7481 6.26225 13.6351 6.07725 13.4781 5.93526C13.4021 5.86926 13.3111 5.82226 13.2141 5.79626C13.1161 5.77126 13.0121 5.78026 12.9191 5.82026C12.8181 5.87026 12.7361 5.95226 12.6871 6.05325C12.6391 6.15525 12.6061 6.26325 12.5911 6.37425Z" fill="black"></path><path d="M18.671 8.82317C18.625 8.73317 18.626 8.40318 18.626 8.35418C18.625 8.30418 18.611 8.25618 18.586 8.21318C18.531 8.13018 18.452 8.06618 18.359 8.03019C18.236 7.97519 18.102 7.94819 17.971 7.91619C17.567 7.81819 17.176 7.67519 16.804 7.4902C16.619 7.3982 16.439 7.2972 16.258 7.1992C16.073 7.0942 15.879 7.00821 15.677 6.94121C15.223 6.80321 14.727 6.84921 14.279 7.00421C13.779 7.1792 13.334 7.4832 12.99 7.88619C12.798 8.04519 12.613 8.21418 12.437 8.39118C12.34 8.48918 12.242 8.59418 12.199 8.72517C12.16 8.84117 12.168 8.96817 12.148 9.08916C12.142 9.13116 12.132 9.17216 12.132 9.21416C12.132 9.23516 12.134 9.25616 12.14 9.27616C12.146 9.29616 12.156 9.31516 12.171 9.33016C12.196 9.35516 12.228 9.37116 12.263 9.37616C12.276 9.37916 12.29 9.37916 12.303 9.38016C12.254 9.39816 12.202 9.41516 12.172 9.45516C12.13 9.51016 12.113 9.58116 12.126 9.64915C12.482 9.86915 12.802 10.1391 13.071 10.4481C13.32 10.7341 13.532 11.0591 13.857 11.2701C14.087 11.4201 14.363 11.5041 14.643 11.5301C14.972 11.5601 15.304 11.5111 15.621 11.4261C15.913 11.3481 16.195 11.2341 16.459 11.0861C16.954 10.8051 17.368 10.3921 17.914 10.2071C18.033 10.1671 18.157 10.1381 18.272 10.0881C18.388 10.0451 18.486 9.96415 18.55 9.85815C18.603 9.75715 18.601 9.64015 18.618 9.52816C18.636 9.40916 18.678 9.29416 18.7 9.17516C18.73 9.05817 18.72 8.93417 18.671 8.82317ZM15.808 5.56423C15.988 5.14224 16.323 4.80525 16.745 4.62425C16.931 4.55325 17.131 4.53125 17.328 4.55925C17.524 4.58625 17.713 4.66025 17.879 4.76725C18.211 4.98224 18.446 5.32724 18.576 5.70123C18.611 5.80123 18.624 5.90623 18.645 6.00922C18.491 5.88423 18.339 5.75423 18.172 5.64723C17.593 5.27924 16.848 5.19924 16.192 5.40224C16.059 5.44324 15.932 5.50223 15.808 5.56423ZM18.112 4.17126C18.507 4.43326 18.803 4.82225 19.007 5.25224C18.97 5.31524 18.927 5.37124 18.879 5.42424C18.676 5.01224 18.386 4.64125 18.004 4.38726C17.806 4.25526 17.586 4.16226 17.354 4.11126C17.391 4.03426 17.437 3.96326 17.489 3.89927C17.71 3.95026 17.922 4.04526 18.112 4.17126ZM13.032 4.10926C13.214 4.11226 13.397 4.15826 13.56 4.23226C13.747 4.31626 13.913 4.43625 14.058 4.57225C14.118 4.62825 14.173 4.68825 14.226 4.75025C14.338 4.97124 14.415 5.21324 14.448 5.46724C14.313 5.12924 14.106 4.82325 13.842 4.57225C13.696 4.43226 13.528 4.31726 13.344 4.23226C13.205 4.16926 13.055 4.13026 12.903 4.11626L12.953 4.11326C12.981 4.11126 13.006 4.10826 13.032 4.10926ZM17.401 6.33322C17.295 6.22822 17.137 6.09122 17.122 5.98423C17.107 5.87723 17.459 5.98023 17.58 6.07822C17.747 6.21422 17.961 6.54521 17.836 6.67021C17.776 6.73021 17.532 6.46122 17.401 6.33322ZM13.103 6.19922C13.129 6.26722 13.217 6.29222 13.265 6.34722C13.315 6.39822 13.356 6.45722 13.386 6.52221C13.435 6.64921 13.338 6.83721 13.44 6.92621C13.472 6.95421 13.536 6.95521 13.568 6.92621C13.691 6.81421 13.664 6.58721 13.615 6.42822C13.568 6.27822 13.464 6.15222 13.326 6.07722C13.264 6.04522 13.17 6.01922 13.116 6.06422C13.082 6.09422 13.087 6.15722 13.103 6.19922ZM12.238 5.50123C12.296 5.31724 12.4 5.15024 12.538 5.01624C12.678 4.88225 12.86 4.80025 13.054 4.78625C13.199 4.78025 13.343 4.81225 13.472 4.87825C13.601 4.94225 13.716 5.03324 13.816 5.13624C13.909 5.23224 13.987 5.34124 14.056 5.45524C13.911 5.41924 13.764 5.39324 13.616 5.37724C13.281 5.34524 12.929 5.38524 12.639 5.55723C12.45 5.66923 12.301 5.83223 12.158 6.00122C12.167 5.83123 12.184 5.66223 12.238 5.50123ZM21.299 14.8741C21.826 15.195 22.411 15.43 22.906 15.796C23.612 16.316 24.09 17.087 24.243 17.95C24.355 18.626 24.379 19.193 24.164 19.98C23.949 20.7669 23.638 21.5189 23.367 22.2859C23.226 22.6849 23.097 23.0909 23.048 23.5139L23.04 23.6019C23.022 23.4489 23.024 23.2949 23.044 23.1429C23.084 22.8329 22.779 22.9539 22.88 22.6599C23.133 21.9229 23.601 20.8399 23.765 20.076C23.93 19.311 24.065 18.959 23.963 18.311C23.832 17.48 23.155 16.57 22.488 16.042C22.08 15.72 21.866 15.35 21.464 15.0211C21.407 14.9761 21.353 14.9241 21.299 14.8741ZM19.158 2.73929C19.191 2.84529 18.58 2.1463 18.338 2.44329C18.133 2.69529 17.381 3.08228 17.385 3.05128C17.389 3.02128 17.769 2.3173 17.65 2.0723C17.531 1.82831 17.411 1.58531 17.687 1.39031C17.963 1.19632 19.158 2.54929 19.158 2.73929ZM19.781 9.57916C19.548 9.79115 19.89 10.1101 20.052 10.4841C20.153 10.7171 20.432 11.0451 20.702 10.9921C20.905 10.9521 21.031 10.6601 21.012 10.4541C20.975 10.0571 20.64 9.96415 20.396 9.82715C20.204 9.72015 19.945 9.43016 19.781 9.57916ZM22.508 16.404C22.38 16.424 22.657 16.694 22.556 16.873C22.429 17.095 22.187 17.36 22.254 17.474C22.32 17.588 22.717 17.408 22.862 17.406C23.007 17.404 23.21 17.555 23.318 17.305C23.425 17.056 22.636 16.384 22.508 16.404Z" fill="#656565"></path><path d="M12.6371 11.1671C12.5031 10.7782 12.4711 10.3592 12.3211 9.97617C12.2791 9.87017 12.2291 9.76717 12.2011 9.65617C12.1861 9.60118 12.1801 9.54418 12.1821 9.48718C12.1831 9.43018 12.1981 9.37418 12.2241 9.32318C12.2731 9.23518 12.3521 9.16918 12.4471 9.13518C12.5411 9.10218 12.6411 9.09019 12.7401 9.10018C12.9381 9.11418 13.1311 9.18318 13.3291 9.18618C13.5041 9.18218 13.6771 9.14718 13.8411 9.08418C14.0071 9.02819 14.1721 8.96619 14.3451 8.93819C14.7481 8.87419 15.1551 9.00819 15.5631 9.00719C15.9201 9.00619 16.2701 8.90319 16.6271 8.88119C16.9131 8.86419 17.2001 8.90019 17.4861 8.88319C17.7021 8.87119 17.9171 8.82919 18.1321 8.84919C18.2391 8.85919 18.3461 8.88519 18.4421 8.93619C18.5391 8.98619 18.6181 9.06319 18.6711 9.15818C18.7361 9.28418 18.7391 9.43218 18.7351 9.57318C18.7311 9.71517 18.7221 9.86017 18.7671 9.99517C18.8171 10.1462 18.9301 10.2682 19.0041 10.4082C19.0431 10.4782 19.0661 10.5552 19.0721 10.6352C19.0771 10.7162 19.0501 10.7952 18.9961 10.8552C18.9491 10.9011 18.8891 10.9301 18.8241 10.9391C18.7591 10.9471 18.6931 10.9441 18.6301 10.9281C18.5031 10.9012 18.3811 10.8452 18.2521 10.8372C18.0791 10.8252 17.9101 10.8982 17.7691 10.9981C17.6281 11.0981 17.5081 11.2261 17.3801 11.3431C17.1001 11.5981 16.7791 11.8031 16.4471 11.9851C16.1721 12.1361 15.8871 12.2721 15.6221 12.4401C15.4671 12.5381 15.3191 12.6471 15.1601 12.7371C15.0031 12.8321 14.8271 12.8931 14.6441 12.9141C14.4561 12.9261 14.2691 12.8901 14.0991 12.8091C13.9301 12.7281 13.7721 12.6271 13.6291 12.5061C13.1901 12.1531 12.8211 11.6981 12.6371 11.1671ZM11.4161 13.2831C11.4161 13.2831 11.0881 13.8111 10.9541 14.3611C10.8201 14.9111 11.0181 14.8941 10.8481 15.2671C10.6791 15.6411 10.0001 16.882 10.0001 16.882C10.4191 16.505 10.7541 16.066 11.2111 15.7301C11.6721 15.3901 12.2701 15.1331 12.9571 14.9031C13.3991 14.8011 13.8461 14.7521 13.8461 14.7521C11.2961 15.1141 11.4731 14.5481 11.3641 14.3841C11.1481 14.0591 11.4161 13.2831 11.4161 13.2831ZM19.5651 14.2351C20.0851 13.8731 20.1951 13.0001 20.1951 13.0001C20.1951 13.0001 20.2741 14.0801 20.4401 14.6301C20.6061 15.1801 21.1711 15.7691 21.3811 16.142C21.5911 16.516 21.5661 17.016 21.5661 17.016C21.0461 16.639 20.6461 16.1 20.1021 15.7561C19.7201 15.5141 19.4901 15.4461 18.8611 15.2071C18.2321 14.9681 17.1151 14.8701 16.5671 14.7681C16.0191 14.6661 15.7721 14.6711 15.7721 14.6711C15.7721 14.6711 17.4791 14.6971 18.1091 14.6261C18.7411 14.5541 19.0451 14.5971 19.5651 14.2351ZM14.6771 13.4621C14.6231 13.6751 14.6521 13.9001 14.7581 14.0931C14.8261 14.2161 14.9241 14.3211 15.0361 14.4061C15.2561 14.5721 15.5351 14.6591 15.8111 14.6461C15.4441 14.5971 15.0761 14.7351 14.8311 15.0131C14.6791 15.1801 14.5651 15.3781 14.4951 15.5931C14.4561 15.7121 14.4301 15.8351 14.4171 15.9591C14.4311 15.7731 14.4301 15.5871 14.4131 15.4011C14.4071 15.2551 14.3711 15.1121 14.3081 14.9801C14.2741 14.9151 14.2261 14.8581 14.1681 14.8131C14.1131 14.7751 14.0511 14.7471 13.9861 14.7321C13.9211 14.7161 13.8551 14.7061 13.7891 14.7001C13.6841 14.6881 13.5791 14.6791 13.4731 14.6711C13.7371 14.6381 13.9971 14.5641 14.2391 14.4541C14.3021 14.4281 14.3611 14.3921 14.4141 14.3481C14.4711 14.2941 14.5141 14.2281 14.5411 14.1551C14.5701 14.0821 14.5861 14.0061 14.6011 13.9291C14.6321 13.7751 14.6571 13.6191 14.6771 13.4621ZM14.0121 17.129C14.0591 17.802 14.0641 18.478 14.0261 19.152C13.9761 20.03 13.8551 20.907 13.9051 21.7839C13.9331 22.2849 14.0181 22.7859 13.9721 23.2849C13.9621 23.3889 13.9471 23.4919 13.9271 23.5949C13.7961 23.3269 13.7031 23.0409 13.6521 22.7469C13.5431 22.1309 13.6171 21.4999 13.6501 20.875C13.6891 20.139 13.6731 19.4 13.7411 18.666C13.7891 18.147 13.8791 17.633 14.0121 17.129Z" fill="#DFDFDF"></path><path d="M12.14 9.38218C12.166 9.32418 12.198 9.26718 12.233 9.21418C12.248 9.19118 12.265 9.17018 12.284 9.15018C12.304 9.13118 12.327 9.11618 12.353 9.10618C12.395 9.09318 12.44 9.10018 12.485 9.10118C12.571 9.10118 12.656 9.08118 12.733 9.04218C12.809 9.00318 12.881 8.95419 12.945 8.89719C13.075 8.78519 13.187 8.65219 13.329 8.55419C13.474 8.4542 13.645 8.3952 13.818 8.3652C13.992 8.3392 14.169 8.3302 14.345 8.3412C14.751 8.3582 15.157 8.4202 15.563 8.4002C15.919 8.3832 16.27 8.3022 16.627 8.2922C16.913 8.2832 17.201 8.3202 17.486 8.2942C17.702 8.2742 17.915 8.2192 18.131 8.2302C18.24 8.2332 18.346 8.2592 18.444 8.3072C18.542 8.3552 18.621 8.4342 18.67 8.53119C18.719 8.65319 18.73 8.78819 18.7 8.91619C18.677 9.04518 18.636 9.17018 18.618 9.29918C18.601 9.42018 18.603 9.54717 18.55 9.65717C18.495 9.77217 18.387 9.85317 18.272 9.90717C18.157 9.96117 18.033 9.99217 17.914 10.0362C17.368 10.2372 16.954 10.6852 16.459 10.9901C16.197 11.1491 15.915 11.2731 15.621 11.3581C15.305 11.4581 14.973 11.4961 14.643 11.4711C14.361 11.4461 14.091 11.3491 13.857 11.1891C13.531 10.9601 13.315 10.6112 13.071 10.2962C12.889 10.0612 12.684 9.83917 12.433 9.68117C12.386 9.65117 12.337 9.62417 12.292 9.59117C12.246 9.55917 12.206 9.51817 12.176 9.47118C12.159 9.44418 12.147 9.41418 12.14 9.38218Z" fill="#CD8907"></path><path d="M13.0359 8.48217C13.4209 8.25417 13.8409 8.09218 14.2789 8.00018C14.9359 7.86218 15.6179 7.89818 16.2569 8.10618C16.4379 8.16418 16.6159 8.23417 16.8029 8.26517C17.0019 8.29817 17.2059 8.28717 17.4069 8.30317C17.6079 8.31917 17.8169 8.36717 17.9699 8.49817C17.9919 8.51717 18.0119 8.53817 18.0309 8.56017C18.0479 8.58017 18.0609 8.60317 18.0699 8.62817C18.0789 8.65317 18.0769 8.68117 18.0659 8.70516C18.0589 8.71916 18.0489 8.73116 18.0369 8.74016C18.0259 8.75116 18.0139 8.76016 17.9999 8.76616C17.8529 8.85316 17.6909 8.91316 17.5469 9.00316C17.3839 9.10516 17.2469 9.24415 17.1019 9.37115C16.7809 9.65115 16.4119 9.87114 16.0119 10.0201C15.7519 10.1161 15.4819 10.1791 15.2119 10.2401C14.8679 10.3171 14.5199 10.3911 14.1679 10.3851C13.8159 10.3791 13.4539 10.2871 13.1809 10.0651C13.0799 9.98314 12.9929 9.88514 12.8969 9.79814C12.8039 9.70615 12.6899 9.64015 12.5639 9.60415C12.5379 9.59815 12.5109 9.59415 12.4849 9.58615C12.4589 9.57815 12.4339 9.56615 12.4149 9.54615C12.4009 9.53015 12.3909 9.51115 12.3849 9.49115C12.3799 9.47115 12.3779 9.45015 12.3789 9.42915C12.3809 9.38715 12.3919 9.34615 12.3969 9.30515C12.4049 9.24415 12.4009 9.18216 12.4019 9.12116C12.3999 9.05916 12.4119 8.99816 12.4349 8.94116C12.4789 8.86616 12.5409 8.80316 12.6159 8.75816C12.7529 8.66117 12.8919 8.56717 13.0359 8.48217Z" fill="#7A4B00"></path><path d="M29.403 27.3538C29.331 27.5388 29.228 27.7118 29.1 27.8638C28.817 28.1998 28.425 28.4208 28.034 28.6198C27.367 28.9598 26.676 29.2578 26.05 29.6667C25.63 29.9407 25.243 30.2617 24.88 30.6087C24.57 30.9047 24.276 31.2217 23.929 31.4727C23.58 31.7317 23.174 31.9027 22.745 31.9737C22.225 32.0517 21.687 31.9507 21.205 31.7407C20.867 31.5937 20.542 31.3827 20.347 31.0697C20.152 30.7557 20.107 30.3707 20.107 30.0007C20.106 29.3458 20.227 28.6988 20.342 28.0538C20.437 27.5178 20.527 26.9818 20.585 26.4408C20.691 25.4568 20.69 24.4638 20.62 23.4769C20.608 23.3119 20.594 23.1449 20.619 22.9809C20.638 22.8149 20.715 22.6609 20.837 22.5459C20.958 22.4499 21.107 22.3969 21.261 22.3939C21.414 22.3849 21.566 22.4099 21.718 22.4319C22.075 22.4839 22.435 22.5249 22.783 22.6169C23.003 22.6749 23.217 22.7529 23.437 22.8119C23.804 22.9109 24.187 22.9589 24.565 22.9139C24.971 22.8669 25.365 22.7139 25.774 22.7239C25.942 22.7279 26.108 22.7599 26.268 22.8099C26.431 22.8609 26.592 22.9349 26.712 23.0569C26.803 23.1499 26.867 23.2669 26.914 23.3879C26.985 23.5679 27.023 23.7599 27.04 23.9529C27.054 24.1239 27.052 24.2968 27.085 24.4658C27.138 24.7428 27.284 24.9958 27.465 25.2128C27.646 25.4298 27.863 25.6138 28.079 25.7958C28.294 25.9768 28.511 26.1568 28.743 26.3158C28.852 26.3898 28.964 26.4598 29.068 26.5418C29.172 26.6238 29.267 26.7188 29.331 26.8338C29.418 26.9928 29.443 27.1778 29.403 27.3538ZM6.95104 21.8759C6.78504 21.9499 6.63904 22.0629 6.52604 22.2059C6.41404 22.3479 6.31504 22.4999 6.23104 22.6609C6.14204 22.8199 6.05604 22.9799 5.95004 23.1259C5.84304 23.2719 5.71504 23.4059 5.55804 23.4959C5.38904 23.5859 5.20304 23.6379 5.01204 23.6489C4.82204 23.6649 4.63104 23.6549 4.44104 23.6499C4.25104 23.6399 4.06004 23.6519 3.87204 23.6859C3.68304 23.7199 3.50804 23.8069 3.36604 23.9359C3.22104 24.0849 3.12504 24.2748 3.09004 24.4798C3.05704 24.6838 3.05004 24.8918 3.07004 25.0978C3.10204 25.5598 3.17704 26.0178 3.20004 26.4798C3.22304 26.9418 3.19204 27.4158 3.02004 27.8458C2.91504 28.1088 2.75904 28.3498 2.66204 28.6168C2.61204 28.7498 2.58404 28.8898 2.57904 29.0318C2.57504 29.1748 2.61004 29.3148 2.67904 29.4398C2.77904 29.5947 2.92404 29.7157 3.09504 29.7867C3.26204 29.8627 3.44204 29.9047 3.61804 29.9537C4.01604 30.0627 4.40404 30.2037 4.80004 30.3227C6.08604 30.7097 7.44104 30.8657 8.68804 31.3627C9.30004 31.6067 9.90204 31.9357 10.561 31.9607C10.975 31.9767 11.393 31.8657 11.748 31.6517C12.103 31.4377 12.395 31.1217 12.585 30.7537C12.856 30.2297 12.916 29.6037 12.76 29.0348C12.64 28.5978 12.401 28.2018 12.131 27.8378C11.861 27.4738 11.558 27.1348 11.289 26.7688C10.877 26.2088 10.55 25.5928 10.194 24.9968C9.75004 24.2638 9.27404 23.5509 8.76705 22.8609C8.54804 22.5589 8.31904 22.2539 8.01004 22.0449C7.85704 21.9379 7.68304 21.8639 7.49904 21.8269C7.31504 21.7899 7.12504 21.8069 6.95104 21.8759Z" fill="#764704"></path><path d="M29.067 27.0148C29.001 27.1818 28.907 27.3368 28.79 27.4738C28.531 27.7768 28.173 27.9748 27.816 28.1538C27.207 28.4588 26.577 28.7268 26.004 29.0948C25.623 29.3438 25.265 29.6268 24.936 29.9418C24.653 30.2078 24.384 30.4928 24.067 30.7177C23.747 30.9507 23.377 31.1047 22.986 31.1677C22.511 31.2377 22.021 31.1467 21.579 30.9577C21.271 30.8257 20.974 30.6377 20.796 30.3548C20.619 30.0728 20.577 29.7268 20.576 29.3938C20.575 28.8048 20.686 28.2228 20.79 27.6438C20.877 27.1628 20.96 26.6798 21.012 26.1938C21.108 25.3098 21.103 24.4169 21.043 23.5299C21.033 23.3809 21.021 23.2309 21.044 23.0839C21.062 22.9349 21.131 22.7959 21.241 22.6929C21.352 22.6059 21.488 22.5569 21.629 22.5549C21.769 22.5479 21.908 22.5699 22.046 22.5909C22.372 22.6389 22.7 22.6749 23.019 22.7569C23.22 22.8089 23.416 22.8789 23.616 22.9319C23.951 23.0269 24.3 23.0579 24.646 23.0239C25.017 22.9809 25.377 22.8439 25.75 22.8529C25.903 22.8569 26.055 22.8849 26.201 22.9299C26.352 22.9699 26.492 23.0459 26.607 23.1519C26.69 23.2349 26.747 23.3409 26.792 23.4489C26.859 23.6099 26.903 23.7829 26.907 23.9569C26.911 24.1399 26.871 24.3229 26.896 24.5029C26.916 24.6499 26.978 24.7879 27.058 24.9129C27.137 25.0379 27.234 25.1509 27.33 25.2638C27.515 25.4828 27.701 25.7048 27.933 25.8728C28.197 26.0638 28.511 26.1758 28.784 26.3538C28.865 26.4068 28.944 26.4668 29.001 26.5458C29.098 26.6828 29.122 26.8578 29.067 27.0148ZM7.22399 22.1729C7.05599 22.2469 6.91399 22.3679 6.81399 22.5209C6.71599 22.6729 6.63499 22.8359 6.57499 23.0069C6.50899 23.1749 6.44799 23.3449 6.36199 23.5039C6.27999 23.6659 6.15999 23.8069 6.01199 23.9129C5.84099 24.0199 5.64499 24.0799 5.44399 24.0859C5.24399 24.0979 5.04399 24.0759 4.84499 24.0579C4.64599 24.0339 4.44599 24.0329 4.24699 24.0569C4.04699 24.0809 3.85899 24.1679 3.71099 24.3049C3.58299 24.4389 3.49699 24.6079 3.46399 24.7909C3.43199 24.9729 3.42399 25.1579 3.43999 25.3418C3.46499 25.7538 3.53699 26.1618 3.56399 26.5738C3.59199 26.9858 3.57299 27.4088 3.42499 27.7938C3.32699 28.0488 3.17399 28.2798 3.07699 28.5348C3.02599 28.6618 2.99599 28.7958 2.98999 28.9328C2.98399 29.0698 3.01499 29.2058 3.08099 29.3268C3.17299 29.4858 3.33199 29.5968 3.50099 29.6678C3.66999 29.7388 3.85099 29.7758 4.02899 29.8208C4.43099 29.9218 4.82099 30.0668 5.22099 30.1758C6.33699 30.4838 7.51699 30.5367 8.60499 30.9317C9.17299 31.1357 9.72299 31.4377 10.327 31.4647C10.705 31.4817 11.087 31.3867 11.413 31.1967C11.74 31.0067 12.011 30.7217 12.187 30.3878C12.432 29.9158 12.49 29.3678 12.348 28.8548C12.238 28.4618 12.016 28.1088 11.767 27.7848C11.518 27.4608 11.24 27.1608 10.996 26.8328C10.628 26.3388 10.343 25.7898 10.044 25.2519C9.64699 24.5389 9.23399 23.8369 8.80299 23.1439C8.62499 22.8579 8.43899 22.5669 8.17199 22.3609C8.03899 22.2559 7.88599 22.1799 7.72099 22.1399C7.55599 22.1009 7.38299 22.1129 7.22399 22.1729Z" fill="#C27D1A"></path><path d="M12.99 7.99517C13.334 7.59218 13.779 7.28818 14.279 7.11319C14.727 6.95719 15.223 6.91219 15.677 7.05019C15.88 7.11219 16.071 7.20818 16.257 7.30818C16.439 7.40518 16.618 7.50718 16.803 7.59918C17.175 7.78417 17.567 7.92717 17.97 8.02517C18.101 8.05717 18.235 8.08417 18.358 8.13917C18.448 8.17917 18.535 8.23716 18.585 8.32216C18.61 8.36516 18.625 8.41316 18.625 8.46316C18.625 8.51316 18.61 8.56016 18.578 8.59816C18.554 8.62716 18.522 8.64916 18.487 8.66316C18.452 8.67616 18.415 8.68416 18.377 8.68516C18.302 8.68816 18.228 8.67116 18.154 8.65916C18.056 8.63816 17.955 8.63916 17.858 8.66416C17.796 8.68616 17.739 8.71915 17.689 8.76215C17.639 8.80415 17.593 8.85115 17.546 8.89615C17.406 9.02815 17.257 9.15115 17.101 9.26414C16.761 9.51814 16.406 9.75713 16.011 9.91313C15.752 10.0101 15.484 10.0841 15.211 10.1331C14.869 10.2011 14.522 10.2541 14.174 10.2411C13.826 10.2281 13.475 10.1451 13.18 9.95813C13.047 9.87413 12.927 9.77013 12.797 9.68014C12.671 9.58514 12.523 9.52214 12.366 9.49714C12.331 9.49314 12.296 9.49214 12.262 9.48514C12.227 9.47914 12.195 9.46314 12.17 9.43914C12.155 9.42414 12.144 9.40514 12.138 9.38514C12.132 9.36514 12.129 9.34414 12.129 9.32314C12.129 9.28114 12.139 9.23914 12.147 9.19815C12.17 9.08815 12.182 8.97515 12.218 8.86815C12.264 8.73215 12.346 8.61116 12.436 8.50016C12.595 8.30516 12.782 8.13417 12.99 7.99517ZM29.029 26.8268C28.955 26.9948 28.859 27.1508 28.744 27.2898C28.476 27.6018 28.131 27.8388 27.744 27.9768C27.123 28.2118 26.446 28.2428 25.836 28.5098C25.465 28.6728 25.131 28.9178 24.792 29.1498C24.524 29.3428 24.238 29.5098 23.938 29.6488C23.599 29.7967 23.238 29.8797 22.876 29.9377C22.647 29.9797 22.413 29.9967 22.18 29.9887C21.945 29.9807 21.715 29.9167 21.509 29.8027C21.347 29.7137 21.215 29.5798 21.13 29.4158C21.038 29.2288 21.022 29.0098 21.024 28.7988C21.03 28.2348 21.15 27.6778 21.147 27.1138C21.144 26.6228 21.047 26.1388 21.019 25.6488C20.965 24.7068 21.167 23.7489 20.99 22.8249C20.961 22.6769 20.923 22.5289 20.925 22.3779C20.925 22.3029 20.938 22.2279 20.964 22.1569C20.989 22.0879 21.033 22.0259 21.09 21.9799C21.138 21.9439 21.194 21.9199 21.253 21.9099C21.311 21.9009 21.371 21.9009 21.429 21.9109C21.546 21.9289 21.657 21.9749 21.771 22.0089C22.096 22.1059 22.44 22.1039 22.77 22.1769C22.978 22.2229 23.178 22.2979 23.384 22.3539C23.729 22.4479 24.088 22.4879 24.442 22.4469C24.822 22.4019 25.194 22.2639 25.576 22.2739C25.733 22.2779 25.888 22.3069 26.039 22.3519C26.195 22.3909 26.338 22.4679 26.456 22.5769C26.538 22.6599 26.598 22.7669 26.646 22.8769C26.716 23.0379 26.765 23.2129 26.764 23.3909C26.763 23.4839 26.749 23.5749 26.741 23.6669C26.73 23.7589 26.733 23.8519 26.752 23.9429C26.774 24.0329 26.82 24.1139 26.873 24.1869C26.926 24.2599 26.986 24.3279 27.04 24.3999C27.193 24.6008 27.302 24.8358 27.421 25.0628C27.54 25.2888 27.674 25.5128 27.862 25.6758C28.118 25.8978 28.45 25.9868 28.736 26.1618C28.823 26.2108 28.899 26.2768 28.959 26.3558C29.007 26.4228 29.038 26.5008 29.049 26.5818C29.062 26.6638 29.056 26.7488 29.029 26.8268ZM7.07695 21.7819C6.89495 21.8809 6.75395 22.0429 6.68095 22.2369C6.60895 22.4289 6.56395 22.6289 6.54795 22.8329C6.52395 23.0349 6.50495 23.2399 6.44695 23.4349C6.39395 23.6349 6.28195 23.8129 6.12395 23.9469C5.95295 24.0699 5.74795 24.1379 5.53695 24.1399C5.32695 24.1499 5.11795 24.1169 4.91095 24.0869C4.70395 24.0499 4.49395 24.0369 4.28395 24.0499C4.07295 24.0629 3.87295 24.1459 3.71495 24.2859C3.59995 24.3999 3.52195 24.5458 3.48795 24.7038C3.45395 24.8598 3.44595 25.0208 3.46595 25.1798C3.50195 25.5378 3.62095 25.8808 3.70195 26.2318C3.78395 26.5818 3.82895 26.9538 3.71995 27.2968C3.64595 27.5298 3.50395 27.7368 3.40895 27.9628C3.35895 28.0748 3.32695 28.1948 3.31595 28.3168C3.30495 28.4398 3.32895 28.5628 3.38695 28.6718C3.47095 28.8248 3.62795 28.9278 3.79295 28.9898C3.95795 29.0518 4.13495 29.0788 4.30695 29.1148C4.69895 29.1968 5.07795 29.3298 5.46495 29.4328C6.38195 29.6777 7.34595 29.7557 8.23695 30.0797C8.73895 30.2627 9.22395 30.5247 9.75795 30.5717C10.097 30.6017 10.445 30.5397 10.748 30.3877C11.051 30.2357 11.308 29.9937 11.466 29.6977C11.706 29.2488 11.71 28.7098 11.614 28.2108C11.472 27.4688 11.127 26.7768 10.703 26.1468C10.39 25.6828 10.034 25.2478 9.72495 24.7818C9.29795 24.1399 8.96595 23.4419 8.60995 22.7599C8.45495 22.4629 8.28895 22.1599 8.02595 21.9469C7.89495 21.8379 7.73995 21.7619 7.57395 21.7249C7.40695 21.6889 7.23195 21.7089 7.07695 21.7819Z" fill="#FCB714"></path><path d="M15.36 7.35728C15.464 7.29928 15.607 7.32128 15.718 7.36428C15.804 7.39828 15.939 7.45628 15.926 7.54827C15.917 7.61827 15.808 7.64427 15.738 7.64227C15.665 7.64027 15.612 7.56627 15.547 7.53227C15.472 7.49428 15.344 7.50728 15.319 7.42728C15.31 7.40228 15.336 7.37028 15.36 7.35728ZM14.087 7.38228C13.991 7.35128 13.833 7.52027 13.885 7.60627C13.899 7.63027 13.943 7.66027 13.972 7.64427C14.016 7.62027 14.052 7.53327 14.1 7.49928C14.132 7.47628 14.124 7.39428 14.087 7.38228Z" fill="black"></path></svg> 