<?xml version="1.0" encoding="UTF-8"?> <svg xmlns="http://www.w3.org/2000/svg" width="32" height="32" viewBox="0 0 32 32" fill="none"><path d="M24 5.95996L10 5.99996V29.04L24 29V5.95996Z" fill="white"></path><path d="M26 5.96V29.04C26 30.12 25.1 31 24 31H10C8.9 31 8 30.12 8 29.04V14H10V29.04L24 29V5.96L14 5.99V4H24C25.1 4 26 4.88 26 5.96ZM16.13 25.67V27.4H17.86V25.67H16.13Z" fill="#424242"></path><path d="M6 6V8H4V6H2V4H4V2H6V4H8V6H6ZM14 8H12V6H10V8H8V10H10V12H12V10H14V8Z" fill="#9B4F96"></path></svg> 