<?xml version="1.0" encoding="UTF-8"?> <svg xmlns="http://www.w3.org/2000/svg" width="32" height="32" viewBox="0 0 32 32" fill="none"><path d="M28 8V24H4V20H20V8H28Z" fill="white"></path><path d="M17 26V28H22V30H10V28H15V26H2V20H4V24H28V8H20V6H30V26H17Z" fill="#424242"></path><path d="M18 0V18H0V0H18Z" fill="#68217A"></path><path d="M2.81009 10.11C2.69009 10.11 2.57009 10.15 2.48009 10.24C2.39009 10.32 2.34009 10.44 2.34009 10.55C2.34009 10.67 2.39009 10.77 2.48009 10.86C2.57009 10.96 2.68009 11 2.81009 11C2.94009 11 3.06009 10.96 3.15009 10.87C3.24009 10.79 3.29009 10.68 3.29009 10.56C3.29009 10.44 3.24009 10.32 3.15009 10.25C3.06009 10.16 2.94009 10.11 2.81009 10.11ZM7.44009 9.24997C7.44009 9.54997 7.45009 9.75997 7.47009 9.87997H7.46009C7.41009 9.77997 7.35009 9.67997 7.28009 9.58997L5.11009 6.21997H4.20009V10.93H4.96009V7.83997C4.97009 7.61997 4.96009 7.40997 4.93009 7.18997H4.95009C4.99009 7.27997 5.03009 7.36997 5.09009 7.45997L7.34009 10.92H8.19009V6.21997H7.44009V9.24997ZM10.1401 8.87997H11.7601V8.21997H10.1401V6.87997H11.9001V6.21997H9.36009V10.93H12.0001V10.27H10.1401V8.87997ZM12.4101 6.21997V6.87997H13.7601V10.92H14.5401V6.87997H15.8901V6.21997H12.4101Z" fill="white"></path><path d="M2.81009 10.11C2.69009 10.11 2.57009 10.15 2.48009 10.24C2.39009 10.32 2.34009 10.44 2.34009 10.55C2.34009 10.67 2.39009 10.77 2.48009 10.86C2.57009 10.96 2.68009 11 2.81009 11C2.94009 11 3.06009 10.96 3.15009 10.87C3.24009 10.79 3.29009 10.68 3.29009 10.56C3.29009 10.44 3.24009 10.32 3.15009 10.25C3.06009 10.16 2.94009 10.11 2.81009 10.11ZM7.44009 9.24997C7.44009 9.54997 7.45009 9.75997 7.47009 9.87997H7.46009C7.41009 9.77997 7.35009 9.67997 7.28009 9.58997L5.11009 6.21997H4.20009V10.93H4.96009V7.83997C4.97009 7.61997 4.96009 7.40997 4.93009 7.18997H4.95009C4.99009 7.27997 5.03009 7.36997 5.09009 7.45997L7.34009 10.92H8.19009V6.21997H7.44009V9.24997ZM10.1401 8.87997H11.7601V8.21997H10.1401V6.87997H11.9001V6.21997H9.36009V10.93H12.0001V10.27H10.1401V8.87997ZM12.4101 6.21997V6.87997H13.7601V10.92H14.5401V6.87997H15.8901V6.21997H12.4101Z" fill="white"></path></svg> 