<?xml version="1.0" encoding="UTF-8"?> <svg xmlns="http://www.w3.org/2000/svg" width="32" height="32" viewBox="0 0 32 32" fill="none"><path d="M15.8101 0.00128311C14.5301 0.00328311 13.2521 0.107283 11.9891 0.313283C8.75909 0.883283 7.99909 2.07828 7.99909 4.28128V7.00128H15.9991V8.00128H5.48009C3.14609 7.99528 1.14009 9.65728 0.71109 11.9513C-0.00591016 14.5593 -0.00591016 17.3123 0.71109 19.9203C1.25409 22.1803 2.55009 24.0003 4.76809 24.0003H6.99909V20.1713C7.20309 17.4073 9.39909 15.2093 12.1621 15.0003H19.7871C21.9101 15.0003 23.9991 13.6813 23.9991 11.5493V4.28028C23.9991 2.21128 22.0571 0.657283 19.9851 0.312283C18.6041 0.0972831 17.2081 -0.00671689 15.8101 0.00128311ZM11.6821 2.34128C12.4851 2.32928 13.1471 2.97128 13.1591 3.77428C13.1711 4.57728 12.5291 5.23928 11.7261 5.25128C10.9231 5.26328 10.2621 4.62228 10.2491 3.81828V3.80128C10.2421 3.00228 10.8831 2.34928 11.6821 2.34128Z" fill="#377EF0"></path><path d="M31.2391 12.035C30.6911 9.828 29.6431 8 27.4221 8H24.9991V11.549C24.9991 14.178 22.3291 16 19.7881 16H12.1621C9.90815 16.195 8.13715 18.011 7.99915 20.269V27.538C7.99915 29.607 9.97115 30.824 11.9891 31.417C14.5681 32.193 17.3191 32.193 19.8981 31.417C21.8201 30.861 23.9981 29.741 23.9981 27.538V25H15.9991V24H27.4221C29.6411 24 30.4671 22.282 31.2391 19.959C32.0221 17.376 32.0221 14.619 31.2391 12.035ZM20.2671 26.57C21.0701 26.557 21.7321 27.199 21.7451 28.002C21.7581 28.805 21.1161 29.467 20.3131 29.48C19.5101 29.493 18.8481 28.851 18.8351 28.048C18.8351 28.048 18.8351 28.048 18.8351 28.047V28.02C18.8291 27.225 19.4701 26.576 20.2651 26.57C20.2661 26.57 20.2661 26.57 20.2671 26.57Z" fill="#F8C63D"></path></svg> 